<?xml version="1.0" standalone="no"?><!DOCTYPE svg PUBLIC "-//W3C//DTD SVG 1.1//EN" "http://www.w3.org/Graphics/SVG/1.1/DTD/svg11.dtd"><svg viewBox="64 64 896 896" class="" data-icon="left-square" width="1em" height="1em" fill="currentColor" aria-hidden="true" version="1.1" xmlns="http://www.w3.org/2000/svg" xmlns:xlink="http://www.w3.org/1999/xlink" style="block-size:16px;display:inline-block;fill:rgba(0, 0, 0, 0.65);font-size:16px;height:16px;inline-size:16px;line-height:16px;perspective-origin:8px 8px;text-align:center;text-rendering:optimizelegibility;transform-origin:8px 8px;width:16px;-moz-osx-font-smoothing:grayscale;"><path d="M365.3 518.5l246 178c5.3 3.8 12.7 0 12.7-6.5v-46.9c0-10.2-4.9-19.9-13.2-25.9L465.4 512l145.4-105.2c8.3-6 13.2-15.6 13.2-25.9V334c0-6.5-7.4-10.3-12.7-6.5l-246 178a8.05 8.05 0 0 0 0 13z" style="block-size:auto;fill:rgba(0, 0, 0, 0.65);font-size:16px;height:auto;inline-size:auto;line-height:16px;overflow:visible;overflow-x:visible;overflow-y:visible;perspective-origin:448px 448px;text-align:center;text-rendering:optimizelegibility;transform-origin:0px 0px;width:auto;-moz-osx-font-smoothing:grayscale;-moz-user-select:none;"/><path d="M880 112H144c-17.7 0-32 14.3-32 32v736c0 17.7 14.3 32 32 32h736c17.7 0 32-14.3 32-32V144c0-17.7-14.3-32-32-32zm-40 728H184V184h656v656z" style="block-size:auto;fill:rgba(0, 0, 0, 0.65);font-size:16px;height:auto;inline-size:auto;line-height:16px;overflow:visible;overflow-x:visible;overflow-y:visible;perspective-origin:448px 448px;text-align:center;text-rendering:optimizelegibility;transform-origin:0px 0px;width:auto;-moz-osx-font-smoothing:grayscale;-moz-user-select:none;"/></svg>